<svg width="259" height="49" viewBox="0 0 259 49" fill="none" xmlns="http://www.w3.org/2000/svg">
<path d="M76.291 43.7412L77.1436 43.9565C76.9648 44.6567 76.6426 45.1914 76.1768 45.5605C75.7139 45.9268 75.147 46.1099 74.4761 46.1099C73.7817 46.1099 73.2163 45.9692 72.7798 45.688C72.3462 45.4038 72.0151 44.9937 71.7866 44.4575C71.561 43.9214 71.4482 43.3457 71.4482 42.7305C71.4482 42.0596 71.5757 41.4751 71.8306 40.9771C72.0884 40.4761 72.4531 40.0967 72.9248 39.8389C73.3994 39.5781 73.9209 39.4478 74.4893 39.4478C75.1338 39.4478 75.6758 39.6118 76.1152 39.9399C76.5547 40.2681 76.8608 40.7295 77.0337 41.3242L76.1943 41.522C76.0449 41.0532 75.8281 40.7119 75.5439 40.498C75.2598 40.2842 74.9023 40.1772 74.4717 40.1772C73.9766 40.1772 73.562 40.2959 73.228 40.5332C72.897 40.7705 72.6641 41.0898 72.5293 41.4912C72.3945 41.8896 72.3271 42.3013 72.3271 42.7261C72.3271 43.2739 72.4062 43.7529 72.5645 44.1631C72.7256 44.5703 72.9746 44.875 73.3115 45.0771C73.6484 45.2793 74.0132 45.3804 74.4058 45.3804C74.8833 45.3804 75.2876 45.2427 75.6187 44.9673C75.9497 44.6919 76.1738 44.2832 76.291 43.7412ZM78.2246 46V39.5576H79.0771V42.2031H82.4258V39.5576H83.2783V46H82.4258V42.9634H79.0771V46H78.2246ZM83.9946 46L86.4688 39.5576H87.3872L90.0239 46H89.0527L88.3013 44.0488H85.6074L84.8999 46H83.9946ZM85.8535 43.3545H88.0376L87.3652 41.5703C87.1602 41.0283 87.0078 40.583 86.9082 40.2344C86.8262 40.6475 86.7104 41.0576 86.561 41.4648L85.8535 43.3545ZM90.7446 39.5576H94.9238V40.3179H91.5972V42.3042H93.1353C93.7036 42.3042 94.1548 42.3584 94.4888 42.4668C94.8257 42.5752 95.0952 42.7803 95.2974 43.082C95.4995 43.3809 95.6006 43.7295 95.6006 44.1279C95.6006 44.4531 95.5273 44.7578 95.3809 45.042C95.2373 45.3232 95.022 45.5532 94.7349 45.7319C94.4478 45.9106 93.9585 46 93.2671 46H90.7446V39.5576ZM91.5972 45.2749H93.3022C93.7622 45.2749 94.1064 45.1812 94.335 44.9937C94.5664 44.8062 94.6821 44.5249 94.6821 44.1499C94.6821 43.8833 94.6162 43.6606 94.4844 43.4819C94.3525 43.3032 94.1694 43.1846 93.9351 43.126C93.7007 43.0674 93.3008 43.0381 92.7354 43.0381H91.5972V45.2749ZM100.509 39.5576V42.3789C100.928 42.3789 101.215 42.3027 101.371 42.1504C101.529 41.9951 101.729 41.6333 101.973 41.0649C102.151 40.6431 102.298 40.3457 102.412 40.1729C102.529 39.9971 102.695 39.8506 102.909 39.7334C103.123 39.6133 103.357 39.5532 103.612 39.5532C103.89 39.5532 104.063 39.5562 104.13 39.562V40.3003C104.104 40.3003 104.048 40.2988 103.963 40.2959C103.87 40.293 103.812 40.2915 103.792 40.2915C103.52 40.2915 103.317 40.3574 103.186 40.4893C103.051 40.6211 102.897 40.9023 102.724 41.333C102.537 41.7988 102.374 42.1167 102.236 42.2866C102.099 42.4536 101.899 42.5928 101.639 42.7041C102.061 42.8213 102.469 43.2051 102.865 43.8555L104.192 46H103.137L102.061 44.251C101.773 43.7881 101.532 43.4614 101.335 43.271C101.139 43.0806 100.864 42.9854 100.509 42.9854V46H99.6348V42.9854C99.3535 42.9854 99.1045 43.0601 98.8877 43.2095C98.6738 43.356 98.4233 43.6738 98.1362 44.1631L98.0835 44.251L97.0068 46H95.9478L97.2749 43.8555C97.6792 43.2021 98.0894 42.8184 98.5054 42.7041C98.2739 42.6104 98.085 42.4858 97.9385 42.3306C97.792 42.1724 97.6177 41.8398 97.4155 41.333C97.231 40.873 97.0728 40.5845 96.9409 40.4673C96.8091 40.3501 96.6128 40.2915 96.3521 40.2915L96.0093 40.3003V39.562C96.0415 39.5562 96.2056 39.5532 96.5015 39.5532C96.7827 39.5532 97.0259 39.6118 97.231 39.729C97.439 39.8433 97.6016 39.9883 97.7188 40.1641C97.8359 40.3369 97.9868 40.6372 98.1714 41.0649C98.4175 41.6421 98.6167 42.0039 98.769 42.1504C98.9243 42.2969 99.2129 42.373 99.6348 42.3789V39.5576H100.509ZM104.943 46V39.5576H109.602V40.3179H105.796V42.291H109.36V43.0469H105.796V45.2397H109.751V46H104.943ZM110.955 46V39.5576H111.808V42.2031H115.156V39.5576H116.009V46H115.156V42.9634H111.808V46H110.955ZM117.446 39.5576H118.219V44.6597L121.647 39.5576H122.504V46H121.73V40.9111L118.298 46H117.446V39.5576ZM123.919 46V39.5576H128.577V40.3179H124.771V42.291H128.335V43.0469H124.771V45.2397H128.727V46H123.919ZM137.006 43.7412L137.858 43.9565C137.68 44.6567 137.357 45.1914 136.892 45.5605C136.429 45.9268 135.862 46.1099 135.191 46.1099C134.497 46.1099 133.931 45.9692 133.495 45.688C133.061 45.4038 132.73 44.9937 132.501 44.4575C132.276 43.9214 132.163 43.3457 132.163 42.7305C132.163 42.0596 132.291 41.4751 132.545 40.9771C132.803 40.4761 133.168 40.0967 133.64 39.8389C134.114 39.5781 134.636 39.4478 135.204 39.4478C135.849 39.4478 136.391 39.6118 136.83 39.9399C137.27 40.2681 137.576 40.7295 137.749 41.3242L136.909 41.522C136.76 41.0532 136.543 40.7119 136.259 40.498C135.975 40.2842 135.617 40.1772 135.187 40.1772C134.691 40.1772 134.277 40.2959 133.943 40.5332C133.612 40.7705 133.379 41.0898 133.244 41.4912C133.109 41.8896 133.042 42.3013 133.042 42.7261C133.042 43.2739 133.121 43.7529 133.279 44.1631C133.44 44.5703 133.689 44.875 134.026 45.0771C134.363 45.2793 134.728 45.3804 135.121 45.3804C135.598 45.3804 136.002 45.2427 136.333 44.9673C136.665 44.6919 136.889 44.2832 137.006 43.7412ZM137.964 39.5576H138.825L140.926 43.5039L142.763 39.5576H143.611L141.194 44.5674C140.892 45.1943 140.645 45.6045 140.451 45.7979C140.258 45.9912 139.981 46.0879 139.621 46.0879C139.401 46.0879 139.131 46.0366 138.812 45.9341V45.2046C139.041 45.3364 139.282 45.4023 139.537 45.4023C139.745 45.4023 139.924 45.3364 140.073 45.2046C140.226 45.0698 140.393 44.7651 140.574 44.2905L137.964 39.5576ZM144.516 39.5576H148.436V45.2397H149.016V47.5029H148.256V46H143.998V47.5029H143.237V45.2397H143.738C144.257 44.4575 144.516 42.877 144.516 40.498V39.5576ZM147.583 40.3179H145.338V40.6475C145.338 41.1953 145.288 41.9453 145.188 42.8975C145.092 43.8467 144.9 44.6274 144.613 45.2397H147.583V40.3179ZM149.772 42.8623C149.772 41.793 150.059 40.9565 150.633 40.353C151.208 39.7466 151.949 39.4434 152.857 39.4434C153.452 39.4434 153.988 39.5854 154.465 39.8696C154.943 40.1538 155.306 40.5508 155.555 41.0605C155.807 41.5674 155.933 42.1431 155.933 42.7876C155.933 43.4409 155.801 44.0254 155.538 44.541C155.274 45.0566 154.9 45.4478 154.417 45.7144C153.934 45.978 153.412 46.1099 152.853 46.1099C152.246 46.1099 151.704 45.9634 151.227 45.6704C150.749 45.3774 150.387 44.9775 150.141 44.4707C149.895 43.9639 149.772 43.4277 149.772 42.8623ZM150.651 42.8755C150.651 43.6519 150.859 44.2642 151.275 44.7124C151.694 45.1577 152.218 45.3804 152.848 45.3804C153.49 45.3804 154.017 45.1548 154.43 44.7036C154.846 44.2524 155.054 43.6123 155.054 42.7832C155.054 42.2588 154.965 41.8018 154.786 41.4121C154.61 41.0195 154.351 40.7163 154.008 40.5024C153.668 40.2856 153.286 40.1772 152.861 40.1772C152.258 40.1772 151.738 40.3853 151.301 40.8013C150.868 41.2144 150.651 41.9058 150.651 42.8755ZM157.001 46V39.5576H159.418C159.91 39.5576 160.304 39.6235 160.6 39.7554C160.899 39.8843 161.132 40.085 161.299 40.3574C161.469 40.627 161.554 40.9097 161.554 41.2056C161.554 41.481 161.479 41.7402 161.33 41.9834C161.18 42.2266 160.955 42.4229 160.653 42.5723C161.042 42.6865 161.341 42.8813 161.549 43.1567C161.76 43.4321 161.866 43.7573 161.866 44.1323C161.866 44.4341 161.801 44.7153 161.672 44.9761C161.546 45.2339 161.39 45.4331 161.202 45.5737C161.015 45.7144 160.779 45.8213 160.495 45.8945C160.213 45.9648 159.868 46 159.458 46H157.001ZM157.854 42.2646H159.247C159.625 42.2646 159.896 42.2397 160.06 42.1899C160.276 42.1255 160.439 42.0186 160.547 41.8691C160.659 41.7197 160.714 41.5322 160.714 41.3066C160.714 41.0928 160.663 40.9053 160.561 40.7441C160.458 40.5801 160.312 40.4688 160.121 40.4102C159.931 40.3486 159.604 40.3179 159.141 40.3179H157.854V42.2646ZM157.854 45.2397H159.458C159.733 45.2397 159.926 45.2295 160.038 45.209C160.234 45.1738 160.398 45.1152 160.53 45.0332C160.662 44.9512 160.77 44.8325 160.855 44.6772C160.94 44.519 160.982 44.3374 160.982 44.1323C160.982 43.8921 160.921 43.6841 160.798 43.5083C160.675 43.3296 160.503 43.2051 160.284 43.1348C160.067 43.0615 159.753 43.0249 159.343 43.0249H157.854V45.2397ZM165.509 46V39.5576H167.926C168.418 39.5576 168.812 39.6235 169.108 39.7554C169.407 39.8843 169.64 40.085 169.807 40.3574C169.977 40.627 170.062 40.9097 170.062 41.2056C170.062 41.481 169.987 41.7402 169.837 41.9834C169.688 42.2266 169.462 42.4229 169.161 42.5723C169.55 42.6865 169.849 42.8813 170.057 43.1567C170.268 43.4321 170.374 43.7573 170.374 44.1323C170.374 44.4341 170.309 44.7153 170.18 44.9761C170.054 45.2339 169.897 45.4331 169.71 45.5737C169.522 45.7144 169.287 45.8213 169.002 45.8945C168.721 45.9648 168.375 46 167.965 46H165.509ZM166.361 42.2646H167.754C168.132 42.2646 168.403 42.2397 168.567 42.1899C168.784 42.1255 168.947 42.0186 169.055 41.8691C169.167 41.7197 169.222 41.5322 169.222 41.3066C169.222 41.0928 169.171 40.9053 169.068 40.7441C168.966 40.5801 168.819 40.4688 168.629 40.4102C168.438 40.3486 168.112 40.3179 167.649 40.3179H166.361V42.2646ZM166.361 45.2397H167.965C168.241 45.2397 168.434 45.2295 168.545 45.209C168.742 45.1738 168.906 45.1152 169.038 45.0332C169.169 44.9512 169.278 44.8325 169.363 44.6772C169.448 44.519 169.49 44.3374 169.49 44.1323C169.49 43.8921 169.429 43.6841 169.306 43.5083C169.183 43.3296 169.011 43.2051 168.792 43.1348C168.575 43.0615 168.261 43.0249 167.851 43.0249H166.361V45.2397ZM174.078 46V39.5576H174.931V42.2031H178.279V39.5576H179.132V46H178.279V42.9634H174.931V46H174.078ZM180.296 42.8623C180.296 41.793 180.583 40.9565 181.158 40.353C181.732 39.7466 182.473 39.4434 183.381 39.4434C183.976 39.4434 184.512 39.5854 184.99 39.8696C185.467 40.1538 185.831 40.5508 186.08 41.0605C186.332 41.5674 186.458 42.1431 186.458 42.7876C186.458 43.4409 186.326 44.0254 186.062 44.541C185.798 45.0566 185.425 45.4478 184.941 45.7144C184.458 45.978 183.937 46.1099 183.377 46.1099C182.771 46.1099 182.229 45.9634 181.751 45.6704C181.273 45.3774 180.912 44.9775 180.666 44.4707C180.419 43.9639 180.296 43.4277 180.296 42.8623ZM181.175 42.8755C181.175 43.6519 181.383 44.2642 181.799 44.7124C182.218 45.1577 182.743 45.3804 183.373 45.3804C184.014 45.3804 184.542 45.1548 184.955 44.7036C185.371 44.2524 185.579 43.6123 185.579 42.7832C185.579 42.2588 185.489 41.8018 185.311 41.4121C185.135 41.0195 184.875 40.7163 184.533 40.5024C184.193 40.2856 183.811 40.1772 183.386 40.1772C182.782 40.1772 182.262 40.3853 181.826 40.8013C181.392 41.2144 181.175 41.9058 181.175 42.8755ZM187.525 46V39.5576H189.942C190.435 39.5576 190.829 39.6235 191.125 39.7554C191.423 39.8843 191.656 40.085 191.823 40.3574C191.993 40.627 192.078 40.9097 192.078 41.2056C192.078 41.481 192.003 41.7402 191.854 41.9834C191.705 42.2266 191.479 42.4229 191.177 42.5723C191.567 42.6865 191.866 42.8813 192.074 43.1567C192.285 43.4321 192.39 43.7573 192.39 44.1323C192.39 44.4341 192.326 44.7153 192.197 44.9761C192.071 45.2339 191.914 45.4331 191.727 45.5737C191.539 45.7144 191.303 45.8213 191.019 45.8945C190.738 45.9648 190.392 46 189.982 46H187.525ZM188.378 42.2646H189.771C190.149 42.2646 190.42 42.2397 190.584 42.1899C190.801 42.1255 190.963 42.0186 191.072 41.8691C191.183 41.7197 191.239 41.5322 191.239 41.3066C191.239 41.0928 191.188 40.9053 191.085 40.7441C190.982 40.5801 190.836 40.4688 190.646 40.4102C190.455 40.3486 190.128 40.3179 189.666 40.3179H188.378V42.2646ZM188.378 45.2397H189.982C190.257 45.2397 190.451 45.2295 190.562 45.209C190.758 45.1738 190.922 45.1152 191.054 45.0332C191.186 44.9512 191.294 44.8325 191.379 44.6772C191.464 44.519 191.507 44.3374 191.507 44.1323C191.507 43.8921 191.445 43.6841 191.322 43.5083C191.199 43.3296 191.028 43.2051 190.808 43.1348C190.591 43.0615 190.278 43.0249 189.868 43.0249H188.378V45.2397ZM193.005 42.8623C193.005 41.793 193.292 40.9565 193.867 40.353C194.441 39.7466 195.182 39.4434 196.09 39.4434C196.685 39.4434 197.221 39.5854 197.699 39.8696C198.176 40.1538 198.54 40.5508 198.789 41.0605C199.041 41.5674 199.167 42.1431 199.167 42.7876C199.167 43.4409 199.035 44.0254 198.771 44.541C198.507 45.0566 198.134 45.4478 197.65 45.7144C197.167 45.978 196.646 46.1099 196.086 46.1099C195.479 46.1099 194.938 45.9634 194.46 45.6704C193.982 45.3774 193.621 44.9775 193.375 44.4707C193.128 43.9639 193.005 43.4277 193.005 42.8623ZM193.884 42.8755C193.884 43.6519 194.092 44.2642 194.508 44.7124C194.927 45.1577 195.452 45.3804 196.082 45.3804C196.723 45.3804 197.25 45.1548 197.664 44.7036C198.08 44.2524 198.288 43.6123 198.288 42.7832C198.288 42.2588 198.198 41.8018 198.02 41.4121C197.844 41.0195 197.584 40.7163 197.242 40.5024C196.902 40.2856 196.52 40.1772 196.095 40.1772C195.491 40.1772 194.971 40.3853 194.535 40.8013C194.101 41.2144 193.884 41.9058 193.884 42.8755ZM200.27 46V39.5576H202.7C203.127 39.5576 203.454 39.5781 203.68 39.6191C203.996 39.6719 204.261 39.7729 204.475 39.9224C204.689 40.0688 204.86 40.2754 204.989 40.542C205.121 40.8086 205.187 41.1016 205.187 41.4209C205.187 41.9688 205.013 42.4331 204.664 42.814C204.315 43.1919 203.686 43.3809 202.774 43.3809H201.122V46H200.27ZM201.122 42.6206H202.788C203.338 42.6206 203.729 42.5181 203.961 42.313C204.192 42.1079 204.308 41.8193 204.308 41.4473C204.308 41.1777 204.239 40.9478 204.102 40.7573C203.967 40.564 203.788 40.4365 203.565 40.375C203.422 40.3369 203.157 40.3179 202.77 40.3179H201.122V42.6206ZM205.811 42.8623C205.811 41.793 206.098 40.9565 206.672 40.353C207.247 39.7466 207.988 39.4434 208.896 39.4434C209.491 39.4434 210.027 39.5854 210.504 39.8696C210.982 40.1538 211.345 40.5508 211.594 41.0605C211.846 41.5674 211.972 42.1431 211.972 42.7876C211.972 43.4409 211.84 44.0254 211.577 44.541C211.313 45.0566 210.939 45.4478 210.456 45.7144C209.973 45.978 209.451 46.1099 208.892 46.1099C208.285 46.1099 207.743 45.9634 207.266 45.6704C206.788 45.3774 206.426 44.9775 206.18 44.4707C205.934 43.9639 205.811 43.4277 205.811 42.8623ZM206.69 42.8755C206.69 43.6519 206.898 44.2642 207.314 44.7124C207.733 45.1577 208.257 45.3804 208.887 45.3804C209.529 45.3804 210.056 45.1548 210.469 44.7036C210.885 44.2524 211.093 43.6123 211.093 42.7832C211.093 42.2588 211.004 41.8018 210.825 41.4121C210.649 41.0195 210.39 40.7163 210.047 40.5024C209.708 40.2856 209.325 40.1772 208.9 40.1772C208.297 40.1772 207.777 40.3853 207.34 40.8013C206.907 41.2144 206.69 41.9058 206.69 42.8755ZM217.672 43.7412L218.524 43.9565C218.346 44.6567 218.023 45.1914 217.558 45.5605C217.095 45.9268 216.528 46.1099 215.857 46.1099C215.163 46.1099 214.597 45.9692 214.161 45.688C213.727 45.4038 213.396 44.9937 213.167 44.4575C212.942 43.9214 212.829 43.3457 212.829 42.7305C212.829 42.0596 212.957 41.4751 213.211 40.9771C213.469 40.4761 213.834 40.0967 214.306 39.8389C214.78 39.5781 215.302 39.4478 215.87 39.4478C216.515 39.4478 217.057 39.6118 217.496 39.9399C217.936 40.2681 218.242 40.7295 218.415 41.3242L217.575 41.522C217.426 41.0532 217.209 40.7119 216.925 40.498C216.641 40.2842 216.283 40.1772 215.853 40.1772C215.357 40.1772 214.943 40.2959 214.609 40.5332C214.278 40.7705 214.045 41.0898 213.91 41.4912C213.775 41.8896 213.708 42.3013 213.708 42.7261C213.708 43.2739 213.787 43.7529 213.945 44.1631C214.106 44.5703 214.355 44.875 214.692 45.0771C215.029 45.2793 215.394 45.3804 215.787 45.3804C216.264 45.3804 216.668 45.2427 217 44.9673C217.331 44.6919 217.555 44.2832 217.672 43.7412ZM224.176 43.7412L225.028 43.9565C224.85 44.6567 224.527 45.1914 224.062 45.5605C223.599 45.9268 223.032 46.1099 222.361 46.1099C221.667 46.1099 221.101 45.9692 220.665 45.688C220.231 45.4038 219.9 44.9937 219.671 44.4575C219.446 43.9214 219.333 43.3457 219.333 42.7305C219.333 42.0596 219.46 41.4751 219.715 40.9771C219.973 40.4761 220.338 40.0967 220.81 39.8389C221.284 39.5781 221.806 39.4478 222.374 39.4478C223.019 39.4478 223.561 39.6118 224 39.9399C224.439 40.2681 224.746 40.7295 224.918 41.3242L224.079 41.522C223.93 41.0532 223.713 40.7119 223.429 40.498C223.145 40.2842 222.787 40.1772 222.356 40.1772C221.861 40.1772 221.447 40.2959 221.113 40.5332C220.782 40.7705 220.549 41.0898 220.414 41.4912C220.279 41.8896 220.212 42.3013 220.212 42.7261C220.212 43.2739 220.291 43.7529 220.449 44.1631C220.61 44.5703 220.859 44.875 221.196 45.0771C221.533 45.2793 221.898 45.3804 222.291 45.3804C222.768 45.3804 223.172 45.2427 223.503 44.9673C223.834 44.6919 224.059 44.2832 224.176 43.7412ZM226.096 39.5576H226.87V44.6597L230.297 39.5576H231.154V46H230.381V40.9111L226.949 46H226.096V39.5576ZM232.565 39.5576H233.338V44.6597L236.766 39.5576H237.623V46H236.85V40.9111L233.417 46H232.565V39.5576ZM235.769 38.0239H236.309C236.265 38.3901 236.13 38.6714 235.905 38.8677C235.682 39.064 235.385 39.1621 235.013 39.1621C234.638 39.1621 234.337 39.0654 234.112 38.8721C233.889 38.6758 233.756 38.3931 233.712 38.0239H234.252C234.293 38.2231 234.374 38.3726 234.494 38.4722C234.617 38.5688 234.781 38.6172 234.986 38.6172C235.224 38.6172 235.402 38.5703 235.522 38.4766C235.646 38.3799 235.728 38.229 235.769 38.0239ZM243.617 43.7412L244.47 43.9565C244.291 44.6567 243.969 45.1914 243.503 45.5605C243.04 45.9268 242.473 46.1099 241.802 46.1099C241.108 46.1099 240.542 45.9692 240.106 45.688C239.672 45.4038 239.341 44.9937 239.113 44.4575C238.887 43.9214 238.774 43.3457 238.774 42.7305C238.774 42.0596 238.902 41.4751 239.157 40.9771C239.415 40.4761 239.779 40.0967 240.251 39.8389C240.726 39.5781 241.247 39.4478 241.815 39.4478C242.46 39.4478 243.002 39.6118 243.441 39.9399C243.881 40.2681 244.187 40.7295 244.36 41.3242L243.521 41.522C243.371 41.0532 243.154 40.7119 242.87 40.498C242.586 40.2842 242.229 40.1772 241.798 40.1772C241.303 40.1772 240.888 40.2959 240.554 40.5332C240.223 40.7705 239.99 41.0898 239.855 41.4912C239.721 41.8896 239.653 42.3013 239.653 42.7261C239.653 43.2739 239.732 43.7529 239.891 44.1631C240.052 44.5703 240.301 44.875 240.638 45.0771C240.975 45.2793 241.339 45.3804 241.732 45.3804C242.209 45.3804 242.614 45.2427 242.945 44.9673C243.276 44.6919 243.5 44.2832 243.617 43.7412ZM245.538 39.5576H246.39V42.3789C246.78 42.3789 247.054 42.3042 247.212 42.1548C247.37 42.0024 247.572 41.6392 247.818 41.0649C247.997 40.6431 248.144 40.3457 248.258 40.1729C248.375 39.9971 248.541 39.8506 248.754 39.7334C248.968 39.6133 249.204 39.5532 249.462 39.5532C249.79 39.5532 249.963 39.5562 249.98 39.562V40.3003C249.951 40.3003 249.894 40.2988 249.809 40.2959C249.715 40.293 249.658 40.2915 249.638 40.2915C249.365 40.2915 249.163 40.3574 249.031 40.4893C248.896 40.6211 248.743 40.9023 248.57 41.333C248.353 41.8779 248.17 42.2222 248.021 42.3657C247.871 42.5063 247.692 42.6191 247.484 42.7041C247.9 42.8184 248.311 43.2021 248.715 43.8555L250.042 46H248.983L247.906 44.251C247.61 43.7676 247.363 43.4365 247.164 43.2578C246.964 43.0762 246.707 42.9854 246.39 42.9854V46H245.538V39.5576ZM250.789 46V39.5576H255.447V40.3179H251.642V42.291H255.206V43.0469H251.642V45.2397H255.597V46H250.789Z" fill="white"/>
<path d="M72.3027 21.3306L74.894 21.104C75.0168 22.1424 75.3 22.9967 75.7437 23.667C76.1968 24.3278 76.8953 24.8659 77.8394 25.2812C78.7834 25.6872 79.8454 25.8901 81.0254 25.8901C82.0732 25.8901 82.9984 25.7344 83.8008 25.4229C84.6032 25.1113 85.1979 24.6865 85.585 24.1484C85.9814 23.6009 86.1797 23.0062 86.1797 22.3643C86.1797 21.7129 85.9909 21.1465 85.6133 20.665C85.2357 20.1742 84.6126 19.7635 83.7441 19.4331C83.1872 19.216 81.9552 18.8809 80.0483 18.4277C78.1414 17.9652 76.8057 17.5309 76.041 17.125C75.0498 16.6058 74.3088 15.9639 73.8179 15.1992C73.3364 14.4251 73.0957 13.5614 73.0957 12.6079C73.0957 11.5601 73.3931 10.583 73.9878 9.67676C74.5825 8.76107 75.451 8.06722 76.5933 7.59521C77.7355 7.12321 79.0052 6.88721 80.4023 6.88721C81.9411 6.88721 83.2957 7.13737 84.4663 7.6377C85.6463 8.12858 86.5526 8.85547 87.1851 9.81836C87.8175 10.7812 88.1574 11.8716 88.2046 13.0894L85.5708 13.2876C85.4292 11.9754 84.9478 10.9842 84.1265 10.314C83.3146 9.64372 82.111 9.30859 80.5156 9.30859C78.8542 9.30859 77.6411 9.6154 76.8765 10.229C76.1213 10.8332 75.7437 11.5648 75.7437 12.4238C75.7437 13.1696 76.0127 13.7832 76.5508 14.2646C77.0794 14.7461 78.4577 15.2417 80.6855 15.7515C82.9229 16.2518 84.4569 16.6908 85.2876 17.0684C86.4959 17.6253 87.388 18.3333 87.9639 19.1924C88.5397 20.042 88.8276 21.0238 88.8276 22.1377C88.8276 23.2422 88.5114 24.2853 87.8789 25.2671C87.2464 26.2394 86.3354 26.9993 85.146 27.5469C83.966 28.085 82.6349 28.354 81.1528 28.354C79.2743 28.354 77.6978 28.0802 76.4233 27.5327C75.1584 26.9852 74.1624 26.1639 73.4355 25.0688C72.7181 23.9644 72.3405 22.7183 72.3027 21.3306ZM92.665 28V7.24121H95.4121V15.7656H106.202V7.24121H108.949V28H106.202V18.2153H95.4121V28H92.665ZM114.004 28V7.24121H116.751V28H114.004ZM121.608 28V7.24121H129.439C130.817 7.24121 131.87 7.30729 132.597 7.43945C133.616 7.60938 134.471 7.93506 135.16 8.4165C135.849 8.88851 136.401 9.55404 136.816 10.4131C137.241 11.2721 137.454 12.2161 137.454 13.2451C137.454 15.0104 136.892 16.5067 135.769 17.7339C134.645 18.9517 132.616 19.5605 129.68 19.5605H124.355V28H121.608ZM124.355 17.1108H129.722C131.497 17.1108 132.757 16.7804 133.503 16.1196C134.249 15.4588 134.622 14.529 134.622 13.3301C134.622 12.4616 134.4 11.7205 133.956 11.1069C133.522 10.4839 132.946 10.0732 132.229 9.875C131.766 9.75228 130.912 9.69092 129.666 9.69092H124.355V17.1108ZM147.55 21.3306L150.141 21.104C150.264 22.1424 150.547 22.9967 150.991 23.667C151.444 24.3278 152.142 24.8659 153.086 25.2812C154.03 25.6872 155.092 25.8901 156.272 25.8901C157.32 25.8901 158.245 25.7344 159.048 25.4229C159.85 25.1113 160.445 24.6865 160.832 24.1484C161.229 23.6009 161.427 23.0062 161.427 22.3643C161.427 21.7129 161.238 21.1465 160.86 20.665C160.483 20.1742 159.86 19.7635 158.991 19.4331C158.434 19.216 157.202 18.8809 155.295 18.4277C153.389 17.9652 152.053 17.5309 151.288 17.125C150.297 16.6058 149.556 15.9639 149.065 15.1992C148.583 14.4251 148.343 13.5614 148.343 12.6079C148.343 11.5601 148.64 10.583 149.235 9.67676C149.83 8.76107 150.698 8.06722 151.84 7.59521C152.983 7.12321 154.252 6.88721 155.649 6.88721C157.188 6.88721 158.543 7.13737 159.713 7.6377C160.893 8.12858 161.8 8.85547 162.432 9.81836C163.065 10.7812 163.404 11.8716 163.452 13.0894L160.818 13.2876C160.676 11.9754 160.195 10.9842 159.374 10.314C158.562 9.64372 157.358 9.30859 155.763 9.30859C154.101 9.30859 152.888 9.6154 152.124 10.229C151.368 10.8332 150.991 11.5648 150.991 12.4238C150.991 13.1696 151.26 13.7832 151.798 14.2646C152.326 14.7461 153.705 15.2417 155.933 15.7515C158.17 16.2518 159.704 16.6908 160.535 17.0684C161.743 17.6253 162.635 18.3333 163.211 19.1924C163.787 20.042 164.075 21.0238 164.075 22.1377C164.075 23.2422 163.758 24.2853 163.126 25.2671C162.493 26.2394 161.583 26.9993 160.393 27.5469C159.213 28.085 157.882 28.354 156.4 28.354C154.521 28.354 152.945 28.0802 151.67 27.5327C150.405 26.9852 149.41 26.1639 148.683 25.0688C147.965 23.9644 147.588 22.7183 147.55 21.3306ZM181.449 7.24121H184.196V19.2349C184.196 21.3211 183.96 22.9779 183.488 24.2051C183.016 25.4323 182.162 26.4329 180.925 27.207C179.698 27.9717 178.084 28.354 176.083 28.354C174.138 28.354 172.547 28.0189 171.311 27.3486C170.074 26.6784 169.191 25.7108 168.663 24.4458C168.134 23.1714 167.87 21.4344 167.87 19.2349V7.24121H170.617V19.2207C170.617 21.0238 170.782 22.3548 171.112 23.2139C171.452 24.0635 172.028 24.7196 172.84 25.1821C173.661 25.6447 174.662 25.876 175.842 25.876C177.862 25.876 179.302 25.4181 180.161 24.5024C181.02 23.5868 181.449 21.8262 181.449 19.2207V7.24121ZM188.784 28V7.24121H196.615C197.993 7.24121 199.046 7.30729 199.772 7.43945C200.792 7.60938 201.646 7.93506 202.335 8.4165C203.025 8.88851 203.577 9.55404 203.992 10.4131C204.417 11.2721 204.629 12.2161 204.629 13.2451C204.629 15.0104 204.068 16.5067 202.944 17.7339C201.821 18.9517 199.791 19.5605 196.855 19.5605H191.531V28H188.784ZM191.531 17.1108H196.898C198.673 17.1108 199.933 16.7804 200.679 16.1196C201.424 15.4588 201.797 14.529 201.797 13.3301C201.797 12.4616 201.576 11.7205 201.132 11.1069C200.698 10.4839 200.122 10.0732 199.404 9.875C198.942 9.75228 198.087 9.69092 196.841 9.69092H191.531V17.1108ZM208.127 28V7.24121H215.958C217.336 7.24121 218.388 7.30729 219.115 7.43945C220.135 7.60938 220.989 7.93506 221.678 8.4165C222.367 8.88851 222.92 9.55404 223.335 10.4131C223.76 11.2721 223.972 12.2161 223.972 13.2451C223.972 15.0104 223.41 16.5067 222.287 17.7339C221.164 18.9517 219.134 19.5605 216.198 19.5605H210.874V28H208.127ZM210.874 17.1108H216.241C218.015 17.1108 219.276 16.7804 220.021 16.1196C220.767 15.4588 221.14 14.529 221.14 13.3301C221.14 12.4616 220.918 11.7205 220.475 11.1069C220.04 10.4839 219.465 10.0732 218.747 9.875C218.285 9.75228 217.43 9.69092 216.184 9.69092H210.874V17.1108ZM227.356 28V7.24121H230.104V25.5503H240.327V28H227.356ZM247.308 28V19.2065L239.308 7.24121H242.649L246.742 13.5C247.497 14.6706 248.2 15.8411 248.852 17.0117C249.475 15.9261 250.23 14.7036 251.117 13.3442L255.139 7.24121H258.339L250.055 19.2065V28H247.308Z" fill="white"/>
<path fill-rule="evenodd" clip-rule="evenodd" d="M5.27725 10.3981C5.27725 10.3981 2.93624 13.5969 3.56783 14.4272C7.35303 19.402 10.6063 25.2098 11.8359 29.6445C11.4296 29.8981 10.9538 30.201 10.4401 30.5391C9.61999 28.6242 8.80739 26.9789 8.24694 25.9655C3.91194 18.1272 -0.381681 16.5061 0.0270395 14.4272C0.4844 12.1009 3.69004 8.32227 3.69004 8.32227L5.27725 6.61285V10.3981ZM12.0184 30.3436C12.1256 30.7837 12.2086 31.1893 12.2659 31.5533C11.9595 31.7215 11.5835 31.9363 11.1247 32.211C10.9892 31.8633 10.8512 31.5211 10.7121 31.1857C11.1854 30.8728 11.6295 30.5882 12.0184 30.3436ZM12.3501 32.2916C12.3545 32.3627 12.34 32.4351 12.3588 32.4978C13.3328 35.7245 13.5961 40.7317 13.3524 40.1076C13.1088 39.4833 12.285 35.2976 11.3744 32.8646C11.7572 32.6333 12.0796 32.4448 12.3501 32.2916Z" fill="white"/>
<path fill-rule="evenodd" clip-rule="evenodd" d="M4.66669 5.81937C4.66669 5.81937 5.24045 6.12985 5.33822 5.63619C6.56752 -0.561167 13.2242 1.67506 18.6317 5.24828C23.0569 8.17224 26.4842 12.1128 26.7664 12.0463C27.2359 11.9354 31.6454 10.2543 32.1998 12.0463C32.397 12.6834 32.8103 13.1451 31.9556 13.2061C31.1009 13.2673 30.6126 13.4505 29.3305 13.5115C28.0485 13.5725 28.7812 14.122 28.7812 14.122C28.7812 14.122 30.1852 14.6714 31.2231 15.5261C35.9124 19.3877 36.3206 23.488 36.1375 17.6628L33.1767 13.1451C32.707 12.4286 34.0314 13.0841 34.0314 13.0841L38.832 21.0911C37.5248 21.4611 35.6677 21.7002 34.634 22.038C34.5815 22.0552 23.388 9.89738 21.3332 8.3835C18.3367 6.17534 5.86478 -1.87662 6.17768 6.87251C6.2389 8.58193 7.70415 12.5196 8.16199 13.2826C8.61959 14.0458 12.3206 23.7293 12.8701 25.988C13.0003 26.5233 13.1649 27.6708 13.3403 29.1089C10.713 30.7032 4.8886 34.5602 3.3026 36.939L3.42456 38.404C3.42456 38.404 6.9656 35.2293 9.95683 33.337C11.8874 32.1157 13.0243 31.525 13.5879 31.2595C14.0847 35.7784 14.5798 41.3875 14.5798 41.3875C14.5798 41.3875 14.9767 41.998 15.0376 42.4864C15.0986 42.9747 14.9767 43.2496 14.9767 43.2496C14.9767 43.2496 14.3966 41.3875 13.4504 40.8992C12.21 40.2589 9.30249 40.6886 8.20022 41.5707C8.20022 41.5707 9.54327 41.6012 9.84842 41.9066C10.1538 42.2117 5.36144 44.0431 4.6287 44.7756C3.8962 45.5083 4.07914 47.9503 4.07914 47.9503L34.3596 48.0112C34.3596 48.0112 33.3829 46.7292 32.8945 46.7292C32.5359 46.7292 35.1361 46.1845 36.4353 48.1334H53.5902C53.5902 48.1334 53.5912 47.3397 51.3325 46.424C49.0735 45.5083 48.7681 45.9357 47.6082 45.3864C46.4484 44.8368 43.4569 44.7758 41.3204 44.959C39.1836 45.142 38.3289 44.7149 37.9016 44.5317C37.4742 44.3485 33.4451 42.2117 31.4915 41.4792C29.5379 40.7465 25.8139 40.3803 24.837 40.7465C23.8603 41.1128 20.8079 40.9297 20.8079 40.9297C20.8079 40.9297 20.6857 40.7465 20.0754 41.0519C19.4648 41.357 18.3047 42.5171 18.3047 42.5171L17.4212 29.6404C17.324 28.2189 29.345 25.6207 32.8636 25.4041C33.7534 25.3494 41.9183 39.4146 52.2786 46.2104C53.7591 47.1817 54.6901 47.5841 54.6901 47.5841C54.6901 47.5841 55.5448 47.4924 54.4154 46.3935C53.286 45.2947 51.2712 43.677 50.5692 42.4864C49.8026 41.1862 40.8955 23.7917 41.5041 23.4696C42.0229 23.195 44.9841 23.0728 45.5334 22.7369C46.0827 22.401 46.4857 22.1827 46.2412 21.4197C45.7827 19.9867 41.8917 21.3205 40.7716 20.8736C39.0839 20.2003 38.8661 15.7659 38.9106 14.2046C38.9106 14.2046 36.0109 9.96151 35.4616 9.29023C34.0718 7.59171 33.1419 5.38307 30.0892 5.38307C28.6851 5.38307 27.0367 6.42096 27.0367 6.42096V10.3586C27.0367 10.3586 26.3739 10.0651 25.3273 8.95435C22.074 5.50213 16.8789 0.860281 12.2627 0.134554C10.3092 -0.172289 7.86725 0.0106554 6.58519 1.04855C5.30312 2.08644 4.69259 3.30728 4.69259 3.30728L4.66669 5.81937ZM17.2383 27.0862C16.0148 18.8762 12.0406 10.9333 10.8282 7.85572C10.534 7.10845 11.199 6.85606 11.9881 6.94003C18.1167 7.59074 33.8359 22.1164 30.6225 22.8666C26.2611 23.8846 21.2885 25.3562 17.2383 27.0862ZM36.295 24.4235L39.5611 23.6605L47.7723 40.2354C50.8652 46.4785 39.4333 30.7005 36.295 24.4235ZM20.1473 42.8917C20.1473 42.8917 20.6661 42.617 22.2838 42.8305C23.9017 43.0442 24.7869 43.3496 24.7869 43.3496C24.7869 43.3496 26.1909 43.4105 27.8394 44.0821C29.4878 44.7536 30.3118 45.6693 30.3118 45.6693C30.3118 45.6693 28.7246 44.6621 27.3206 44.4789C25.9163 44.2957 25.6111 44.143 24.5428 43.7769C23.4744 43.4105 20.1473 42.8917 20.1473 42.8917Z" fill="white"/>
</svg>
