<svg width="15" height="13" viewBox="0 0 15 13" fill="none" xmlns="http://www.w3.org/2000/svg">
<path d="M3.82515 7.63534L5.1318 11.5519C5.22465 11.8302 5.56845 11.9278 5.79351 11.7396L9.60621 8.55371C9.60621 8.55371 5.52512 6.98983 5.5257 7.0764C5.52628 7.16314 3.82515 7.63534 3.82515 7.63534Z" fill="#AAD3DD"/>
<path d="M13.8893 0.0327521C11.3928 1.03736 3.33633 4.39522 0.286965 5.66764C-0.115786 5.83557 -0.0878395 6.41443 0.328307 6.54449L3.82516 7.63533L5.1275 11.5393C5.17992 11.6963 5.3104 11.797 5.45534 11.8233C5.57333 11.8448 5.72771 8.65392 5.72771 8.65392C5.72771 8.65392 9.41307 11.353 11.1609 12.6276C11.5917 12.9416 12.2027 12.6998 12.301 12.176C12.8034 9.50092 14.0596 2.81233 14.4892 0.525631C14.5538 0.181833 14.2138 -0.0978879 13.8893 0.0327521Z" fill="white"/>
<path d="M5.45533 11.8233C5.57332 11.8448 5.7277 8.65389 5.7277 8.65389L11.7216 2.95584C11.762 2.91739 11.713 2.85298 11.6652 2.88208L3.82515 7.63531L5.1275 11.5393C5.17992 11.6963 5.31039 11.7969 5.45533 11.8233Z" fill="#230577"/>
</svg>
