<svg width="16" height="16" viewBox="0 0 16 16" fill="none" xmlns="http://www.w3.org/2000/svg">
<path d="M15.9936 7.59588C15.8867 3.38316 12.4149 0 8.14333 0C3.92143 0 0.479392 3.30461 0.298646 7.44937C0.293106 7.56339 0.289392 7.67782 0.289392 7.793C0.289392 9.26609 0.700412 10.6424 1.41596 11.8167L0 16L4.34725 14.6174C5.47373 15.2348 6.76624 15.588 8.14333 15.588C12.4816 15.588 15.9973 12.098 15.9973 7.793C15.9973 7.72677 15.9953 7.66112 15.9936 7.59588ZM8.14333 14.3453C6.80312 14.3453 5.55492 13.9461 4.51146 13.2604L1.97291 14.0679L2.79851 11.6341C2.0078 10.554 1.54122 9.22549 1.54122 7.793C1.54122 7.57827 1.55246 7.3671 1.57263 7.15783C1.89526 3.84123 4.71784 1.23984 8.14333 1.23984C11.6111 1.23984 14.4616 3.90647 14.7248 7.28045C14.7379 7.44937 14.7473 7.62086 14.7473 7.79218C14.7473 11.4056 11.7842 14.3453 8.14333 14.3453Z" fill="white"/>
<path d="M11.5154 9.36564C11.3219 9.26965 10.374 8.80711 10.1991 8.74428C10.0219 8.68061 9.89481 8.64853 9.76582 8.84044C9.63675 9.03095 9.2679 9.46065 9.15537 9.5879C9.04308 9.71515 8.93055 9.7316 8.73856 9.63585C8.54516 9.54168 7.92587 9.33894 7.19007 8.68805C6.61699 8.18195 6.2316 7.55628 6.11907 7.36445C6.00653 7.17445 6.10807 7.07134 6.20382 6.97518C6.29055 6.89076 6.39746 6.75227 6.49147 6.64164C6.52116 6.60856 6.54307 6.57913 6.56341 6.54945C6.6093 6.47941 6.64088 6.41318 6.68504 6.32289C6.74961 6.19572 6.71827 6.08402 6.6704 5.98736C6.62227 5.89319 6.2354 4.95192 6.07474 4.56959C5.91426 4.18693 5.75402 4.25142 5.6433 4.25142C5.52912 4.25142 5.40178 4.2348 5.27445 4.2348C5.14381 4.2348 4.93719 4.28276 4.76033 4.4745C4.58322 4.66616 4.08563 5.12704 4.08563 6.06641C4.08563 6.28875 4.12598 6.50885 4.18501 6.71729C4.38048 7.3929 4.79902 7.9453 4.87269 8.04386C4.96869 8.17012 6.20381 10.162 8.16176 10.9272C10.1195 11.6924 10.1195 11.4379 10.4719 11.4048C10.824 11.3733 11.6111 10.9439 11.7715 10.4968C11.9321 10.0504 11.9321 9.66818 11.8839 9.5879C11.8344 9.50852 11.7071 9.46065 11.5154 9.36564Z" fill="white"/>
</svg>
